<svg width="30" height="31" viewBox="0 0 30 31" fill="none" xmlns="http://www.w3.org/2000/svg">
<g clip-path="url(#clip0_92_2302)">
<path d="M7.83782 26.3417L8.32257 26.5842C10.3426 27.7961 12.6049 28.3617 14.8673 28.3617C21.9775 28.3617 27.795 22.5443 27.795 15.434C27.795 12.0406 26.4214 8.72781 23.9975 6.30384C21.5735 3.87986 18.3415 2.50635 14.8673 2.50635C7.75708 2.50635 1.93951 8.3238 2.02036 15.5149C2.02036 17.9387 2.74755 20.282 3.95948 22.3018L4.28264 22.7867L2.98998 27.5538L7.83782 26.3417Z" fill="#00E676"/>
<path d="M25.3706 5.01104C22.6235 2.18316 18.826 0.647949 14.9476 0.647949C6.70633 0.647949 0.0808494 7.35417 0.161583 15.5147C0.161583 18.1003 0.888764 20.6051 2.10081 22.8674L0 30.5432L7.83741 28.5233C10.019 29.7353 12.4428 30.3009 14.8669 30.3009C23.0275 30.3009 29.653 23.5946 29.653 15.4341C29.653 11.4749 28.1178 7.75818 25.3707 5.01104H25.3706ZM14.9476 27.7962C12.7661 27.7962 10.5846 27.2307 8.72618 26.0995L8.24143 25.8571L3.55517 27.069L4.7671 22.4636L4.44394 21.9788C0.888765 16.2422 2.58556 8.64695 8.40301 5.09177C14.2205 1.53671 21.7347 3.23351 25.2899 9.05096C28.8449 14.8684 27.1481 22.3827 21.3308 25.9378C19.4723 27.1498 17.21 27.7961 14.9476 27.7961V27.7962ZM22.0579 18.8277L21.1691 18.4237C21.1691 18.4237 19.8764 17.8581 19.0684 17.4541C18.9876 17.4541 18.9068 17.3732 18.826 17.3732C18.5836 17.3732 18.422 17.4541 18.2604 17.5349C18.2604 17.5349 18.1797 17.6157 17.0485 18.9085C16.9676 19.07 16.806 19.1509 16.6444 19.1509H16.5636C16.4829 19.1509 16.3213 19.07 16.2404 18.9893L15.8364 18.8277C14.9476 18.4237 14.1397 17.9388 13.4933 17.2925C13.3317 17.1309 13.0893 16.9693 12.9277 16.8078C12.3621 16.2422 11.7965 15.5957 11.3926 14.8685L11.3117 14.7069C11.231 14.6261 11.231 14.5454 11.1502 14.3838C11.1502 14.2222 11.1502 14.0606 11.231 13.9798C11.231 13.9798 11.5542 13.5757 11.7965 13.3334C11.9582 13.1717 12.0389 12.9294 12.2005 12.7678C12.3621 12.5254 12.4429 12.2022 12.3621 11.9598C12.2814 11.5558 11.3117 9.37424 11.0694 8.88949C10.9077 8.64706 10.7463 8.56633 10.5038 8.48548H9.61506C9.45336 8.48548 9.29189 8.56633 9.13019 8.56633L9.04934 8.64706C8.88776 8.72791 8.72618 8.88949 8.5646 8.97023C8.40301 9.13193 8.32216 9.29339 8.16058 9.45509C7.59498 10.1823 7.27181 11.071 7.27181 11.9598C7.27181 12.6061 7.4334 13.2526 7.67583 13.8182L7.75668 14.0606C8.48386 15.5957 9.45336 16.9693 10.7463 18.1813L11.0694 18.5044C11.3117 18.7469 11.5542 18.9085 11.7158 19.1508C13.4125 20.6052 15.3517 21.6556 17.5332 22.2212C17.7756 22.3019 18.0988 22.3019 18.3412 22.3828H19.1492C19.5532 22.3828 20.0379 22.2212 20.3612 22.0596C20.6035 21.898 20.7651 21.898 20.9267 21.7364L21.0884 21.5747C21.25 21.4132 21.4115 21.3324 21.5731 21.1708C21.7347 21.0093 21.8963 20.8477 21.9771 20.686C22.1387 20.3628 22.2195 19.9588 22.3003 19.5549V18.9893C22.3003 18.9893 22.2195 18.9085 22.0579 18.8277Z" fill="white"/>
</g>
<defs>
<clipPath id="clip0_92_2302">
<rect width="29.6525" height="30" fill="white" transform="translate(0 0.647949)"/>
</clipPath>
</defs>
</svg>
